<?xml version="1.0" encoding="utf-8"?>
<!-- Generator: Adobe Illustrator 28.0.0, SVG Export Plug-In . SVG Version: 6.00 Build 0)  -->
<svg version="1.1" id="Laag_1" xmlns="http://www.w3.org/2000/svg" xmlns:xlink="http://www.w3.org/1999/xlink" x="0px" y="0px"
	 viewBox="0 0 763.56 565.18" style="enable-background:new 0 0 763.56 565.18;" xml:space="preserve">
<style type="text/css">
	.st0{fill:#FAE800;}
	.st1{fill:#FFFFFF;stroke:#000000;stroke-width:3;stroke-miterlimit:10;}
	.st2{fill:none;stroke:#000000;stroke-width:3;stroke-miterlimit:10;}
	.st3{font-family:'Akkurat';}
	.st4{font-size:15.0809px;}
</style>
<rect x="0.9" y="0.34" class="st0" width="761.89" height="564.94"/>
<polygon class="st1" points="661.87,31.51 661.87,304.96 345.53,304.96 345.53,388.52 257.15,388.52 257.15,545.5 257.3,545.5 
	257.3,546.04 17.96,546.04 17.96,304.5 125.58,304.5 125.58,304.78 256.93,304.78 256.93,304.5 257.01,304.5 257.01,304.96 
	257.3,304.96 257.3,304.5 257.01,304.5 257.01,31.51 436.93,31.51 436.93,109.89 520.98,109.89 520.98,31.51 "/>
<rect x="436.73" y="31.51" class="st1" width="84.2" height="78.51"/>
<rect x="257.01" y="304.5" class="st1" width="0.29" height="0.46"/>
<rect x="661.52" y="31.61" class="st1" width="83.11" height="133.15"/>
<rect x="661.51" y="234.87" class="st1" width="83.37" height="70.09"/>
<path class="st2" d="M469.37,31.52c-0.26-1.29,1.39-17.34,17.32-17.34"/>
<path class="st2" d="M436.83,84.19c-1.29,0.26-17.34-1.39-17.34-17.32"/>
<path class="st2" d="M538.17,81.44c0.26-1.29-1.39-17.34-17.32-17.34"/>
<rect x="534.17" y="132.44" class="st1" width="15.58" height="37.42"/>
<rect x="504.64" y="132.44" class="st1" width="15.58" height="37.42"/>
<rect x="475.93" y="132.44" class="st1" width="15.58" height="37.42"/>
<rect x="446.41" y="132.44" class="st1" width="15.58" height="37.42"/>
<rect x="417.31" y="132.44" class="st1" width="15.58" height="37.42"/>
<rect x="387.78" y="132.44" class="st1" width="15.58" height="37.42"/>
<rect x="534.17" y="181" class="st1" width="15.58" height="37.42"/>
<rect x="504.64" y="181" class="st1" width="15.58" height="37.42"/>
<rect x="475.93" y="181" class="st1" width="15.58" height="37.42"/>
<rect x="446.41" y="181" class="st1" width="15.58" height="37.42"/>
<rect x="417.31" y="181" class="st1" width="15.58" height="37.42"/>
<rect x="387.78" y="181" class="st1" width="15.58" height="37.42"/>
<rect x="534.17" y="229.57" class="st1" width="15.58" height="37.42"/>
<rect x="504.64" y="229.57" class="st1" width="15.58" height="37.42"/>
<rect x="475.93" y="229.57" class="st1" width="15.58" height="37.42"/>
<rect x="446.41" y="229.57" class="st1" width="15.58" height="37.42"/>
<rect x="417.31" y="229.57" class="st1" width="15.58" height="37.42"/>
<rect x="387.78" y="229.57" class="st1" width="15.58" height="37.42"/>
<rect x="584.44" y="150.75" class="st1" width="33.83" height="33.41"/>
<rect x="584.09" y="212.98" class="st1" width="33.83" height="33.41"/>
<rect x="579.86" y="64.64" class="st1" width="49.86" height="62.49"/>
<rect x="549.34" y="31.54" class="st1" width="112.12" height="12.95"/>
<rect x="309.66" y="244.19" class="st1" width="36.27" height="16.46"/>
<rect x="303.38" y="154.67" class="st1" width="50.04" height="89.57"/>
<rect x="415.06" y="235.78" transform="matrix(6.123234e-17 -1 1 6.123234e-17 109.9078 803.5813)" class="st1" width="83.37" height="222.11"/>
<rect x="614.83" y="258.33" transform="matrix(6.123234e-17 -1 1 6.123234e-17 309.677 1003.3505)" class="st1" width="83.37" height="177.01"/>
<rect x="17.55" y="190.77" class="st1" width="239.38" height="114.01"/>
<rect x="257.1" y="304.93" class="st1" width="0.2" height="0.03"/>
<rect x="257.15" y="388.52" class="st1" width="88.38" height="0.07"/>
<rect x="125.58" y="304.5" class="st1" width="131.35" height="0.28"/>
<rect x="257.01" y="304.5" class="st1" width="0.29" height="0.46"/>
<rect x="257.15" y="388.52" class="st1" width="0.15" height="156.98"/>
<rect x="257.15" y="388.52" class="st1" width="122.18" height="156.98"/>
<rect x="257.11" y="132.39" class="st1" width="17.63" height="57.97"/>
<rect x="256.94" y="68.46" class="st1" width="52.45" height="15.38"/>
<rect x="256.94" y="43.31" class="st1" width="52.45" height="15.38"/>
<path class="st1" d="M334.02,108.95h-39.68c-3.53,0-6.38-2.86-6.38-6.38v0c0-3.53,2.86-6.38,6.38-6.38h39.68
	c3.53,0,6.38,2.86,6.38,6.38v0C340.4,106.09,337.54,108.95,334.02,108.95z"/>
<rect x="257.21" y="95.53" class="st1" width="11.25" height="36.91"/>
<rect x="661.51" y="164.64" class="st1" width="83.37" height="70.09"/>
<rect x="520.88" y="31.74" class="st1" width="10.68" height="30.22"/>
<rect x="521.01" y="94.77" class="st1" width="52.45" height="15.38"/>
<path class="st2" d="M644.08,53.27c-0.26,1.29,1.39,17.34,17.32,17.34"/>
<path class="st2" d="M644.5,195.84c-0.26,1.29,1.39,17.34,17.32,17.34"/>
<path class="st2" d="M644.17,263c-0.26,1.29,1.39,17.34,17.32,17.34"/>
<path class="st2" d="M479.48,305.3c-0.26-1.29,1.39-17.34,17.32-17.34"/>
<path class="st2" d="M256.67,235.31c1.29-0.26,17.35,1.26,17.46,17.2"/>
<path class="st2" d="M256.5,530.02c-1.29,0.26-17.35-1.26-17.46-17.2"/>
<rect x="67.12" y="460.31" class="st2" width="19.95" height="85.8"/>
<circle class="st1" cx="113.06" cy="529.79" r="6.65"/>
<circle class="st1" cx="130.4" cy="529.79" r="6.65"/>
<circle class="st1" cx="149.48" cy="529.79" r="6.65"/>
<circle class="st1" cx="168.95" cy="532.44" r="6.65"/>
<circle class="st1" cx="190.02" cy="529.18" r="6.65"/>
<circle class="st1" cx="207.36" cy="529.18" r="6.65"/>
<circle class="st1" cx="208.57" cy="479.85" r="6.65"/>
<circle class="st1" cx="191.23" cy="479.85" r="6.65"/>
<circle class="st1" cx="172.16" cy="479.85" r="6.65"/>
<circle class="st1" cx="152.69" cy="477.2" r="6.65"/>
<circle class="st1" cx="131.61" cy="480.45" r="6.65"/>
<circle class="st1" cx="114.27" cy="480.45" r="6.65"/>
<rect x="99.16" y="481.43" class="st1" width="126.34" height="48.36"/>
<rect x="72.19" y="314.67" class="st1" width="41.53" height="58.13"/>
<rect x="121.16" y="354.94" class="st1" width="41.53" height="58.13"/>
<rect x="182.85" y="318.88" transform="matrix(0.9241 0.3821 -0.3821 0.9241 148.4073 -51.4008)" class="st1" width="41.53" height="58.13"/>
<rect x="427.41" y="49.11" class="st0" width="96.11" height="26.73"/>
<text transform="matrix(1 0 0 1 452.0904 66.7044)" class="st3 st4">Ingang</text>
<rect x="601.91" y="109.48" class="st0" width="96.11" height="26.73"/>
<text transform="matrix(1 0 0 1 618.5231 127.0819)" class="st3 st4">Logistiek</text>
<rect x="417.85" y="208.58" class="st0" width="139.24" height="26.73"/>
<text transform="matrix(1 0 0 1 438.8468 226.1771)" class="st3 st4">Makersruimte</text>
<rect x="271.44" y="356.13" class="st0" width="139.24" height="26.73"/>
<text transform="matrix(1 0 0 1 287.8399 373.724)" class="st3 st4">vergaderruimte</text>
<rect x="44.49" y="410.97" class="st0" width="139.24" height="26.73"/>
<text transform="matrix(1 0 0 1 70.1959 428.5648)" class="st3 st4">Pauzeruimte</text>
<rect x="284.03" y="116.2" class="st0" width="96.11" height="26.73"/>
<text transform="matrix(1 0 0 1 294.4093 133.7972)" class="st3 st4">materialen</text>
</svg>
